<svg width="20" height="20" viewBox="0 0 20 20" fill="none" xmlns="http://www.w3.org/2000/svg">
<path d="M13.3333 5.43333L13.3333 6.66667L13.3333 19.0657C13.3333 19.477 13.3333 19.6826 13.2013 19.7533C13.0693 19.824 12.8982 19.7099 12.556 19.4818L10.2774 17.9627C10.1429 17.8731 10.0757 17.8282 10 17.8282C9.92431 17.8282 9.85709 17.8731 9.72265 17.9627L6.94402 19.8151C6.80958 19.9047 6.74236 19.9495 6.66667 19.9495C6.59097 19.9495 6.52375 19.9047 6.38932 19.8151L3.61068 17.9627C3.47625 17.8731 3.40903 17.8282 3.33333 17.8282C3.25764 17.8282 3.19042 17.8731 3.05599 17.9627L3.05598 17.9627L0.77735 19.4818C0.435164 19.7099 0.264071 19.824 0.132035 19.7533C-1.38729e-08 19.6826 -2.28612e-08 19.477 -4.08378e-08 19.0657L-6.99382e-07 4.00001C-7.81805e-07 2.11439 -8.23016e-07 1.17158 0.585786 0.585794C1.17157 7.57818e-06 2.11438 7.53697e-06 4 7.45455e-06L16.6667 8.80822e-06L16.0051 0.441024L16.0051 0.441036C14.6972 1.31296 14.0433 1.74892 13.6883 2.4122C13.3333 3.07548 13.3333 3.86143 13.3333 5.43333Z" fill="#DDDDDD"/>
<path d="M13.3335 3C13.3335 1.34314 14.6766 0 16.3335 0H17.0002C18.657 0 20.0002 1.34315 20.0002 3V5.66667C20.0002 6.21895 19.5524 6.66667 19.0002 6.66667H13.8335C13.5574 6.66667 13.3335 6.44281 13.3335 6.16667V3Z" fill="#444444"/>
<path d="M2.77783 7.22217L10.5556 7.22217" stroke="#FF9D43" stroke-linecap="round"/>
<path d="M2.77783 10.5557L7.22228 10.5557" stroke="#FF9D43" stroke-linecap="round"/>
<path d="M2.77783 13.8887L9.4445 13.8887" stroke="#FF9D43" stroke-linecap="round"/>
</svg>
